<svg width="34" height="34" viewBox="0 0 34 34" fill="none" xmlns="http://www.w3.org/2000/svg">
<path d="M29.055 12.9727C29.4172 16.1735 29.1003 18.484 26.4289 20.7521C26.1799 20.964 24.8443 22.5114 24.5952 22.7022C24.6631 22.6386 24.7311 22.5962 24.7763 22.5538C27.4477 20.2857 28.8512 16.6398 28.4664 13.4179C28.1721 10.1535 26.2478 7.46145 24.1877 6.02005C23.0332 5.23575 21.9465 4.76942 20.9504 4.47266C19.5695 4.55744 18.7092 4.93899 18.5508 4.98139C18.7998 5.06618 21.8786 6.16843 23.2822 8.88166C24.9122 11.7645 23.7123 14.944 22.1729 16.4702C20.8825 18.1448 18.8224 19.671 18.5508 22.4266C18.5508 23.7621 19.3431 24.9703 21.3579 25.3306C23.3048 25.691 26.678 24.9915 29.3493 21.9815C31.6584 19.3954 32.5413 15.6012 31.7037 12.464C30.934 9.26321 28.6701 6.84674 26.4063 5.68089C25.1386 5.04498 23.984 4.70582 22.9653 4.55744C23.5312 4.81181 24.1198 5.15097 24.7311 5.55371C26.8591 7.03751 28.7607 9.70835 29.055 12.9727Z" fill="white"/>
<path d="M18.5961 5.00223C18.5734 4.98103 18.5734 4.98103 18.5961 5.00223C18.5734 5.00223 18.5734 5.00223 18.5961 5.00223Z" fill="white"/>
<path d="M17.1019 3.90018C17.0793 3.87898 17.0793 3.87898 17.1019 3.90018C17.0793 3.90018 17.0793 3.90018 17.1019 3.90018Z" fill="white"/>
<path d="M16.0605 3.43394C16.717 4.51499 17.8489 5.2145 19.0714 5.38408C19.5242 4.30302 19.4562 3.03119 18.7997 1.95014C18.1432 0.869086 17.0113 0.169577 15.7662 0C15.3361 1.08105 15.3813 2.35289 16.0605 3.43394Z" fill="white"/>
<path d="M15.6756 4.40933C16.9207 3.96419 18.2564 4.09137 19.3431 4.68489C18.9582 5.78714 18.0753 6.74102 16.8076 7.18616C15.5624 7.6313 14.2268 7.50411 13.1401 6.91059C13.5476 5.78714 14.4305 4.85447 15.6756 4.40933Z" fill="white"/>
<path d="M23.2142 16.2369C23.7349 17.1271 23.35 17.7419 22.6482 17.8266C21.9011 17.9326 21.4484 17.6783 21.222 17.3179C20.8824 16.5548 19.9769 14.9438 19.909 14.9438C19.7958 14.9226 22.1502 14.6047 23.2142 16.2369Z" fill="white"/>
<path d="M30.6396 20.3705C29.802 20.8793 29.2134 20.9005 28.6701 20.4129C28.1494 19.9466 28.4664 19.0775 29.3719 18.5476C31.2056 17.2546 34.1939 18.0177 33.9901 18.2084C33.8317 18.0812 31.9979 19.3531 30.6396 20.3705Z" fill="white"/>
<path d="M4.94499 21.006C4.58278 17.8052 5.10346 15.3675 7.77479 13.0994C8.02381 12.8875 9.15573 11.4461 9.40475 11.2765C9.33684 11.3189 9.26893 11.3825 9.22365 11.4249C6.55232 13.693 5.14874 17.3389 5.5336 20.5608C5.82789 23.8252 7.75215 26.5172 9.81224 27.9586C10.9668 28.7429 12.0535 29.2093 13.0495 29.506C14.4305 29.4212 15.2907 29.0397 15.4492 28.9973C15.2002 28.9125 12.1214 27.8103 10.7178 25.097C9.08781 22.2142 10.2877 19.0346 11.8271 17.5085C13.1175 15.8339 15.1775 14.3077 15.4492 11.5521C15.4492 10.2166 14.6569 9.00839 12.642 8.64804C10.6951 8.28769 7.32202 8.9872 4.65069 11.9972C2.34158 14.5832 1.45869 18.3775 2.29631 21.5147C3.06602 24.7155 5.32984 27.132 7.59368 28.2978C8.86143 28.9337 10.016 29.2729 11.0347 29.4213C10.4688 29.1669 9.88017 28.8277 9.26893 28.425C7.16356 26.9624 5.23929 24.2915 4.94499 21.006Z" fill="#393A37"/>
<path d="M15.4041 28.9976C15.4267 28.9976 15.4267 29.0188 15.4041 28.9976C15.4267 28.9976 15.4267 28.9976 15.4041 28.9976Z" fill="#393A37"/>
<path d="M16.8982 30.0996C16.9208 30.1208 16.9208 30.1208 16.8982 30.0996C16.9208 30.0996 16.9208 30.0996 16.8982 30.0996Z" fill="#393A37"/>
<path d="M17.9621 30.5664C17.3056 29.4853 16.1737 28.7858 14.9286 28.6162C14.4758 29.6973 14.5437 30.9691 15.2003 32.0502C15.8568 33.1312 16.9887 33.8307 18.2112 34.0003C18.6639 32.9192 18.6186 31.6474 17.9621 30.5664Z" fill="#393A37"/>
<path d="M18.3244 29.5909C17.0793 30.0361 15.7436 29.9089 14.657 29.3154C15.0418 28.2131 15.9247 27.2593 17.1925 26.8141C18.4376 26.369 19.7733 26.4962 20.8599 27.0897C20.4524 28.2131 19.5695 29.1458 18.3244 29.5909Z" fill="#393A37"/>
<path d="M10.7858 17.763C10.2651 16.8727 10.6499 16.258 11.3517 16.1732C12.0988 16.0672 12.5516 16.3216 12.7779 16.6819C13.1175 17.445 14.023 19.056 14.091 19.056C14.2268 19.0772 11.8498 19.3952 10.7858 17.763Z" fill="#393A37"/>
<path d="M3.36038 13.6296C4.198 13.1208 4.7866 13.0996 5.32992 13.5872C5.8506 14.0535 5.53367 14.9014 4.62814 15.4525C2.79443 16.7455 -0.193846 15.9612 0.00989986 15.7917C0.168369 15.9188 2.00207 14.647 3.36038 13.6296Z" fill="#393A37"/>
</svg>
