<svg width="34" height="34" viewBox="0 0 34 34" fill="none" xmlns="http://www.w3.org/2000/svg">
<path d="M26.0701 7.31112C29.7798 6.66667 32.6216 5.66666 34 4.46666L31.5495 0C28.4184 2.55556 23.0751 4.42223 17 4.42223C10.9249 4.42223 5.58158 2.55556 2.45045 0L0 4.46666C1.37838 5.66666 4.22023 6.68889 7.92993 7.31112V9.82221H4.59459V11H7.92993V25.1111H7.64064V24.0889H6.17718V25.1111H5.05405V26.2889H6.17718V34H7.64064V26.2889H7.91291V34H9.37638V26.2889H9.76777V25.1111H9.37638V11H24.5896V25.1111H24.1982V26.2889H24.5896V34H26.0531V26.2889H26.3253V34H27.7888V26.2889H28.9119V25.1111H27.7888V24.0889H26.3253V25.1111H26.0531V11H29.3884V9.82221H26.0531V7.31112H26.0701ZM9.39339 9.84443V7.55556C10.959 7.77778 12.6436 7.91111 14.4134 8V9.86667H9.39339V9.84443ZM15.1281 9.84443V8C15.2813 8 15.4514 7.99999 15.6046 8.02222V9.84443H15.1281ZM18.3103 9.84443V8.02222C18.4975 8.02222 18.6847 8.02222 18.8719 8V9.84443H18.3103ZM19.5866 9.84443V7.97778C21.3564 7.91112 23.041 7.75556 24.6066 7.53334V9.82221H19.5866V9.84443Z" fill="white"/>
</svg>
